<!DOCTYPE svg PUBLIC "-//W3C//DTD SVG 1.1//EN" "http://www.w3.org/Graphics/SVG/1.1/DTD/svg11.dtd">
<!-- Uploaded to: SVG Repo, www.svgrepo.com, Transformed by: SVG Repo Mixer Tools -->
<svg fill="#2947AA" height="800px" width="800px" version="1.1" id="Layer_1" xmlns="http://www.w3.org/2000/svg" xmlns:xlink="http://www.w3.org/1999/xlink" viewBox="0 0 512 512" xml:space="preserve" stroke="#2947AA">
<g id="SVGRepo_bgCarrier" stroke-width="0"/>
<g id="SVGRepo_tracerCarrier" stroke-linecap="round" stroke-linejoin="round"/>
<g id="SVGRepo_iconCarrier"> <g> <g> <path d="M256,0c-36.826,0-66.783,29.956-66.783,66.783c0,36.826,29.956,66.783,66.783,66.783s66.783-29.956,66.783-66.783 C322.783,29.956,292.826,0,256,0z M256,100.174c-18.413,0-33.391-14.978-33.391-33.391c0-18.413,14.978-33.391,33.391-33.391 s33.391,14.978,33.391,33.391C289.391,85.196,274.413,100.174,256,100.174z"/> </g> </g> <g> <g> <path d="M461.913,278.261c-8.462,0-16.318,2.307-23.315,6.027c-18.876-61.417-76.112-106.201-143.642-106.201H183.652 c-3.587,0-7.196,0.13-10.783,0.386c-21.348-27.234-52.543-45.38-87.032-50.304c-10.024-1.454-19.054,6.372-19.054,16.526v89.206 c-10.717,13.262-19.152,28.343-24.826,44.359h-8.565C14.978,278.261,0,293.239,0,311.652v33.391 c0,18.413,14.978,33.391,33.391,33.391h8.565c10.783,30.364,31.348,56.842,58.218,74.864v25.31 c0,18.413,14.978,33.391,33.391,33.391h33.391c18.413,0,33.391-14.978,33.391-33.391h77.913c0,18.413,14.978,33.391,33.391,33.391 h33.391c18.413,0,33.391-14.978,33.391-33.391v-25.31c41.424-27.745,66.783-74.755,66.783-124.951 c0-9.206,7.49-16.696,16.696-16.696s16.696,7.49,16.696,16.696c0,9.223,7.479,16.696,16.696,16.696 c9.217,0,16.696-7.473,16.696-16.696C512,300.729,489.532,278.261,461.913,278.261z M133.565,294.957 c-9.22,0-16.696-7.475-16.696-16.696s7.475-16.696,16.696-16.696c9.22,0,16.696,7.475,16.696,16.696 S142.786,294.957,133.565,294.957z M306.087,244.87H205.913c-9.217,0-16.696-7.473-16.696-16.696 c0-9.223,7.479-16.696,16.696-16.696h100.174c9.217,0,16.696,7.473,16.696,16.696C322.783,237.397,315.304,244.87,306.087,244.87z "/> </g> </g> </g>
</svg>